<svg width="20" height="18" viewBox="0 0 20 18" fill="none" xmlns="http://www.w3.org/2000/svg">
<path id="Icon" d="M2.91625 17.0006L8.96307 10.9538C9.32609 10.5907 9.5076 10.4092 9.7169 10.3412C9.901 10.2814 10.0993 10.2814 10.2834 10.3412C10.4927 10.4092 10.6742 10.5907 11.0373 10.9538L17.0438 16.9603M11.8335 11.75L14.4631 9.12042C14.8261 8.75741 15.0076 8.5759 15.2169 8.50789C15.401 8.44807 15.5993 8.44807 15.7834 8.50789C15.9927 8.5759 16.1742 8.75741 16.5373 9.12042L19.1668 11.75M8.16683 6.25C8.16683 7.26252 7.34602 8.08333 6.3335 8.08333C5.32097 8.08333 4.50016 7.26252 4.50016 6.25C4.50016 5.23748 5.32097 4.41667 6.3335 4.41667C7.34602 4.41667 8.16683 5.23748 8.16683 6.25ZM5.2335 17.25H14.7668C16.307 17.25 17.077 17.25 17.6653 16.9503C18.1827 16.6866 18.6034 16.2659 18.8671 15.7485C19.1668 15.1602 19.1668 14.3901 19.1668 12.85V5.15C19.1668 3.60986 19.1668 2.83978 18.8671 2.25153C18.6034 1.73408 18.1827 1.31338 17.6653 1.04973C17.077 0.75 16.307 0.75 14.7668 0.75H5.2335C3.69335 0.75 2.92328 0.75 2.33502 1.04973C1.81758 1.31338 1.39688 1.73408 1.13323 2.25153C0.833496 2.83978 0.833496 3.60986 0.833496 5.15V12.85C0.833496 14.3901 0.833496 15.1602 1.13323 15.7485C1.39688 16.2659 1.81758 16.6866 2.33502 16.9503C2.92328 17.25 3.69335 17.25 5.2335 17.25Z" stroke="#9F9F9F" stroke-linecap="round" stroke-linejoin="round"/>
</svg>
