<svg width="49" height="39" viewBox="0 0 49 39" fill="none" xmlns="http://www.w3.org/2000/svg">
<g id="Layer_1" clip-path="url(#clip0_453_597)">
<path id="Vector" d="M21.534 14.3064H5.16406V24.201H21.534V14.3064ZM17.3152 20.8599H9.3829V17.7759H17.3152V20.8599Z" fill="#444444"/>
<path id="Vector_2" d="M19.1629 35.3163H8.61581V30.6474H4.35303V39.0214H19.2068C21.2064 39.0214 22.1293 38.7215 22.6127 37.9934V33.967C22.1732 34.738 21.4042 35.3377 19.1629 35.3377V35.3163Z" fill="#444444"/>
<path id="Vector_3" d="M26.7857 11.5865C26.7857 15.3344 29.9937 17.3904 33.1798 17.3904C36.3659 17.3904 39.6179 15.3344 39.6179 11.5865C39.6179 10.5799 39.3103 9.70179 38.8049 8.99503H40.409V5.52551H25.9507V8.99503H27.6206C27.0933 9.72321 26.8076 10.5799 26.8076 11.5865H26.7857ZM33.2018 9.29487C34.7619 9.29487 35.7287 10.3015 35.7287 11.5651C35.7287 12.8286 34.7619 13.8995 33.2018 13.8995C31.6417 13.8995 30.6969 12.8501 30.6969 11.5865C30.6969 10.3229 31.6637 9.29487 33.2018 9.29487Z" fill="#444444"/>
<path id="Vector_4" d="M49.0021 10.6227V7.02465H46.0577V4.43322H47.0905L43.9044 -6.10352e-05L40.7183 4.43322H41.7949V20.3887H46.0577V15.827H49.0021V12.2504H46.0577V10.6227H49.0021Z" fill="#444444"/>
<path id="Vector_5" d="M41.7943 22.5733C41.7943 24.6507 40.5199 26.0214 38.4104 26.0214C36.301 26.0214 35.0266 24.6507 35.0266 23.0873C35.0266 21.0741 36.6965 19.4464 39.575 20.2817C39.4651 18.9752 37.6414 17.626 34.9167 18.14C34.3234 18.2471 33.7082 18.4612 33.1589 18.7825C33.1589 18.7825 33.1589 18.7825 33.1369 18.7825C32.8512 18.9324 32.5876 19.1252 32.3459 19.3393C32.2799 19.3822 32.236 19.425 32.1701 19.4892C32.1261 19.5321 32.0602 19.5963 32.0163 19.6392C29.9068 21.5667 27.2701 25.4217 23.3149 25.6573H3.0777L0.00146484 27.392L3.0777 29.1268H11.4494V33.0461H15.7122V29.1268H23.5346C27.0943 29.084 29.6651 27.1779 31.2252 25.5074C32.258 28.2487 35.0485 29.8978 38.4104 29.8978C42.5414 29.8978 46.079 27.0922 46.079 22.5518V21.2883H41.7723V22.5518L41.7943 22.5733Z" fill="#444444"/>
<path id="Vector_6" d="M36.9386 1.09222H29.4678V4.58316H36.9386V1.09222Z" fill="#444444"/>
</g>
<defs>
<clipPath id="clip0_453_597">
<rect width="49" height="39" fill="white"/>
</clipPath>
</defs>
</svg>
