<svg width="20" height="18" viewBox="0 0 20 18" fill="none" xmlns="http://www.w3.org/2000/svg">
<path id="Icon" d="M2.916 17.0006L8.96283 10.9538C9.32584 10.5907 9.50735 10.4092 9.71665 10.3412C9.90076 10.2814 10.0991 10.2814 10.2832 10.3412C10.4925 10.4092 10.674 10.5907 11.037 10.9538L17.0435 16.9603M11.8333 11.75L14.4628 9.12042C14.8258 8.75741 15.0074 8.5759 15.2167 8.50789C15.4008 8.44807 15.5991 8.44807 15.7832 8.50789C15.9925 8.5759 16.174 8.75741 16.537 9.12042L19.1666 11.75M8.16658 6.25C8.16658 7.26252 7.34577 8.08333 6.33325 8.08333C5.32073 8.08333 4.49992 7.26252 4.49992 6.25C4.49992 5.23748 5.32073 4.41667 6.33325 4.41667C7.34577 4.41667 8.16658 5.23748 8.16658 6.25ZM5.23325 17.25H14.7666C16.3067 17.25 17.0768 17.25 17.6651 16.9503C18.1825 16.6866 18.6032 16.2659 18.8669 15.7485C19.1666 15.1602 19.1666 14.3901 19.1666 12.85V5.15C19.1666 3.60986 19.1666 2.83978 18.8669 2.25153C18.6032 1.73408 18.1825 1.31338 17.6651 1.04973C17.0768 0.75 16.3067 0.75 14.7666 0.75H5.23325C3.69311 0.75 2.92304 0.75 2.33478 1.04973C1.81733 1.31338 1.39664 1.73408 1.13298 2.25153C0.833252 2.83978 0.833252 3.60986 0.833252 5.15V12.85C0.833252 14.3901 0.833252 15.1602 1.13298 15.7485C1.39664 16.2659 1.81733 16.6866 2.33478 16.9503C2.92304 17.25 3.69311 17.25 5.23325 17.25Z" stroke="#444444" stroke-linecap="round" stroke-linejoin="round"/>
</svg>
