<svg width="24" height="24" viewBox="0 0 24 24" fill="none" xmlns="http://www.w3.org/2000/svg">
<g id="edit-03">
<path id="Icon" d="M12 20.0002H21M3.00003 20.0002H4.67457C5.16376 20.0002 5.40835 20.0002 5.63852 19.945C5.84259 19.896 6.03768 19.8152 6.21663 19.7055C6.41846 19.5818 6.59141 19.4089 6.93732 19.063L19.5001 6.50023C20.3285 5.6718 20.3285 4.32865 19.5001 3.50023C18.6716 2.6718 17.3285 2.6718 16.5001 3.50023L3.93729 16.063C3.59139 16.4089 3.41843 16.5818 3.29475 16.7837C3.18509 16.9626 3.10428 17.1577 3.05529 17.3618C3.00003 17.5919 3.00003 17.8365 3.00003 18.3257V20.0002Z" stroke="#444444" stroke-width="2" stroke-linecap="round" stroke-linejoin="round"/>
</g>
</svg>
